:FULLY-SPECIFIED
:DEGREES
100
root 4.53958 16.2265 -3.03775 34.117 -84.6933 -28.1725
lowerback 1.76997 1.18683 2.67465
upperback 1.15359 1.59834 1.34843
thorax 0.225304 0.799871 -0.14118
lowerneck -18.3424 -1.46284 -0.98443
upperneck 18.9459 -2.52617 3.07302
head 9.02736 -0.946482 0.879345
rclavicle -6.36111e-015 3.27995e-015
rhumerus -25.6429 1.38316 -84.5468
rradius 24.8196
rwrist 24.8759
rhand -26.6835 1.82586
rfingers 7.12502
rthumb -0.114438 -28.1539
lclavicle -6.36111e-015 3.27995e-015
lhumerus -27.4735 5.37706 88.6323
lradius 19.1775
lwrist -17.1537
lhand -25.228 1.7132
lfingers 7.12502
lthumb 1.29133 31.689
rfemur 11.8606 8.52807 31.9051
rtibia 6.36111e-015
rfoot -12.1409 -15.8301
rtoes -9.03113
lfemur -34.0148 -12.2514 -16.9411
ltibia 27.3877
lfoot -8.96141 2.63837
ltoes -16.7432
101
root 4.5141 16.2349 -3.0159 35.7712 -84.8348 -29.8284
lowerback 1.59883 1.23838 2.71633
upperback 1.14342 1.66196 1.31443
thorax 0.31435 0.833153 -0.196083
lowerneck -18.352 -1.46066 -0.872682
upperneck 19.0206 -2.53483 2.96822
head 9.0521 -0.953645 0.823894
rclavicle -1.27222e-014 -1.04362e-014
rhumerus -25.9356 1.55225 -84.6987
rradius 24.8728
rwrist 24.6268
rhand -26.6819 1.82879
rfingers 7.12502
rthumb -0.112866 -28.1509
lclavicle -1.27222e-014 -1.04362e-014
lhumerus -27.5745 5.89106 88.4403
lradius 18.9465
lwrist -17.6783
lhand -25.1863 1.79331
lfingers 7.12502
lthumb 1.33159 31.7689
rfemur 12.3802 8.49644 31.9579
rtibia 3.18055e-015
rfoot -12.1423 -15.6947
rtoes -10.1585
lfemur -33.8689 -12.375 -16.9624
ltibia 27.894
lfoot -8.33402 2.04013
ltoes -15.6028
102
root 4.48812 16.2464 -2.99517 37.6129 -85.0116 -31.5971
lowerback 1.39543 1.29847 2.6596
upperback 1.09521 1.7357 1.32771
thorax 0.378405 0.870305 -0.147229
lowerneck -18.2786 -1.46774 -0.912317
upperneck 19.0114 -2.53085 2.9555
head 9.03579 -0.957173 0.826908
rclavicle -7.95139e-015 -1.50082e-014
rhumerus -26.2273 1.73536 -84.7413
rradius 24.9079
rwrist 24.7406
rhand -26.6414 1.68224
rfingers 7.12502
rthumb -0.07371 -28.2975
lclavicle -7.95139e-015 -1.50082e-014
lhumerus -27.6682 6.37314 88.3408
lradius 18.7
lwrist -17.9824
lhand -25.0818 1.87111
lfingers 7.12502
lthumb 1.43254 31.846
rfemur 12.797 8.51386 31.9656
rtibia 6.36111e-015
rfoot -12.0499 -15.5164
rtoes -11.2226
lfemur -33.8993 -12.6735 -16.8212
ltibia 28.0675
lfoot -7.58578 2.16248
ltoes -17.0864
103
root 4.4553 16.2496 -2.97017 38.4598 -85.3162 -32.3588
lowerback 1.08205 1.38158 2.5402
upperback 1.06136 1.83743 1.22251
thorax 0.521052 0.923029 -0.181159
lowerneck -18.2616 -1.48807 -0.855135
upperneck 19.0587 -2.58461 2.98154
head 9.05003 -0.975641 0.819381
rclavicle 1.43125e-014 2.38542e-015
rhumerus -26.4763 1.53626 -84.8035
rradius 24.7271
rwrist 24.9619
rhand -26.7704 2.00783
rfingers 7.12502
rthumb -0.198333 -27.9718
lclavicle 1.43125e-014 2.38542e-015
lhumerus -27.8664 6.84275 88.1138
lradius 18.4498
lwrist -18.4477
lhand -25.2749 1.85052
lfingers 7.12502
lthumb 1.24609 31.8266
rfemur 13.2547 8.57782 31.799
rtibia -6.36111e-015
rfoot -11.8006 -15.3502
rtoes -12.421
lfemur -33.7487 -13.0689 -16.8177
ltibia 28.0487
lfoot -6.61778 2.14206
ltoes -18.4612
104
root 4.42724 16.2504 -2.94832 38.2151 -85.5544 -32.0167
lowerback 0.867735 1.39772 2.29256
upperback 1.01576 1.85341 1.1786
thorax 0.588075 0.930735 -0.0828722
lowerneck -18.2781 -1.46668 -0.903051
upperneck 19.1085 -2.55041 3.00948
head 9.07046 -0.959753 0.84131
rclavicle -1.27222e-014 -1.83876e-015
rhumerus -26.677 1.74503 -84.9027
rradius 24.4954
rwrist 25.0805
rhand -26.8495 1.82432
rfingers 7.12502
rthumb -0.274692 -28.1552
lclavicle -1.27222e-014 -1.83876e-015
lhumerus -28.0332 7.31282 87.9828
lradius 18.2328
lwrist -18.6802
lhand -25.3773 1.78492
lfingers 7.12502
lthumb 1.14716 31.7616
rfemur 13.6568 8.53593 31.6012
rtibia 9.54166e-015
rfoot -11.6356 -15.1939
rtoes -13.5205
lfemur -33.5193 -13.3554 -16.9181
ltibia 28.0314
lfoot -5.50628 1.42423
ltoes -15.8352
105
root 4.40022 16.2546 -2.92848 36.5617 -85.8028 -30.1948
lowerback 0.594778 1.40201 1.92665
upperback 0.916647 1.85514 1.10275
thorax 0.63007 0.930596 0.0495987
lowerneck -18.1809 -1.44889 -0.893081
upperneck 19.1213 -2.5304 3.00711
head 9.0567 -0.951475 0.841853
rclavicle 1.27222e-014 0
rhumerus -26.968 1.56636 -84.8632
rradius 24.2571
rwrist 25.6189
rhand -26.6765 1.81392
rfingers 7.12502
rthumb -0.107627 -28.1658
lclavicle 1.27222e-014 0
lhumerus -28.2717 7.6749 87.8312
lradius 18.0436
lwrist -18.8165
lhand -25.3886 1.71121
lfingers 7.12502
lthumb 1.13625 31.6879
rfemur 14.0019 8.4533 31.2921
rtibia -6.04305e-014
rfoot -11.3487 -14.9974
rtoes -14.7124
lfemur -33.2619 -13.4313 -17.2725
ltibia 28.1878
lfoot -4.90611 1.06056
ltoes -13.6078
106
root 4.37379 16.2636 -2.90721 34.5241 -86.007 -28.0225
lowerback 0.356491 1.41314 1.65359
upperback 0.845323 1.86809 0.983429
thorax 0.685757 0.936911 0.0854428
lowerneck -18.1639 -1.47545 -0.882022
upperneck 19.1665 -2.58269 3.04678
head 9.07091 -0.971086 0.846829
rclavicle 3.02153e-014 7.7526e-015
rhumerus -27.2635 1.31462 -84.8843
rradius 24.0667
rwrist 25.7874
rhand -26.5592 1.82249
rfingers 7.12502
rthumb 0.00561204 -28.1572
lclavicle 3.02153e-014 7.7526e-015
lhumerus -28.477 8.04554 87.613
lradius 17.8814
lwrist -19.1166
lhand -25.3346 1.73995
lfingers 7.12502
lthumb 1.18839 31.7164
rfemur 14.356 8.32956 30.9752
rtibia -2.54444e-014
rfoot -10.9104 -14.7417
rtoes -15.9434
lfemur -32.9444 -13.3371 -17.7334
ltibia 28.5333
lfoot -5.08378 1.12508
ltoes -12.4735
107
root 4.34676 16.2735 -2.88345 32.3776 -86.2526 -25.8246
lowerback 0.2165 1.36721 1.29169
upperback 0.751605 1.80803 0.929692
thorax 0.657932 0.905258 0.234626
lowerneck -18.0225 -1.41555 -0.831383
upperneck 19.2312 -2.50353 2.97603
head 9.06422 -0.940263 0.82518
rclavicle -1.11319e-014 -2.73329e-015
rhumerus -27.6331 1.55445 -84.9845
rradius 23.8656
rwrist 25.8061
rhand -26.5242 1.69838
rfingers 7.12502
rthumb 0.0394719 -28.2814
lclavicle -1.11319e-014 -2.73329e-015
lhumerus -28.8194 8.41858 87.4462
lradius 17.7369
lwrist -19.23
lhand -25.3672 1.70502
lfingers 7.12502
lthumb 1.15688 31.6816
rfemur 14.757 8.24042 30.627
rtibia 0
rfoot -10.4021 -14.4846
rtoes -17.3498
lfemur -32.5644 -13.2378 -18.2279
ltibia 28.9102
lfoot -5.2727 1.11544
ltoes -11.44
108
root 4.32255 16.2873 -2.86248 31.7681 -86.4267 -25.1059
lowerback 0.0322266 1.36178 1.09689
upperback 0.676366 1.8008 0.860813
thorax 0.680254 0.901265 0.276692
lowerneck -17.9248 -1.39699 -0.793818
upperneck 19.1934 -2.49873 3.02119
head 9.03367 -0.932118 0.83535
rclavicle 5.56597e-015 -3.65267e-015
rhumerus -27.8627 0.955375 -84.8482
rradius 23.5154
rwrist 26.5972
rhand -26.4841 2.13762
rfingers 7.12502
rthumb 0.0781473 -27.8421
lclavicle 5.56597e-015 -3.65267e-015
lhumerus -29.0504 8.91633 87.2003
lradius 17.6116
lwrist -19.4161
lhand -25.3374 1.72379
lfingers 7.12502
lthumb 1.18574 31.7002
rfemur 14.5613 8.16328 30.4224
rtibia 0.976428
rfoot -10.1542 -14.2324
rtoes -18.6945
lfemur -32.341 -13.1238 -18.5308
ltibia 29.2661
lfoot -5.29076 0.780359
ltoes -9.78088
109
root 4.2999 16.2974 -2.8377 28.5755 -86.6106 -21.8592
lowerback -0.0684832 1.33878 0.81409
upperback 0.644392 1.77222 0.752396
thorax 0.69862 0.886315 0.325861
lowerneck -18.0285 -1.37269 -0.699076
upperneck 19.2682 -2.48763 2.9894
head 9.0765 -0.921843 0.809876
rclavicle -1.74931e-014 -1.21756e-014
rhumerus -28.1028 0.634349 -84.8008
rradius 23.3001
rwrist 27.04
rhand -26.4094 2.04614
rfingers 7.12502
rthumb 0.150328 -27.9335
lclavicle -1.74931e-014 -1.21756e-014
lhumerus -29.2401 9.20266 86.9886
lradius 17.4762
lwrist -19.9527
lhand -25.1538 1.71942
lfingers 7.12502
lthumb 1.36302 31.6948
rfemur 11.7859 8.02855 30.0779
rtibia 7.24214
rfoot -12.4951 -14.3094
rtoes -20.0073
lfemur -31.982 -13.144 -18.9699
ltibia 29.4619
lfoot -5.34248 0.492431
ltoes -7.61001
